<?xml version="1.0" encoding="utf-8"?>
<!-- Generator: Adobe Illustrator 23.0.2, SVG Export Plug-In . SVG Version: 6.00 Build 0)  -->
<svg version="1.1" id="Payment_Icons" xmlns="http://www.w3.org/2000/svg" xmlns:xlink="http://www.w3.org/1999/xlink" x="0px"
	 y="0px" viewBox="0 0 38 38" style="enable-background:new 0 0 38 38;" xml:space="preserve">
<style type="text/css">
	.st0{fill:#333333;}
	.st1{fill:#252525;}
	.st2{fill:#888888;}
</style>
<path class="st0" d="M5,7.5h28c2.5,0,4.5,2,4.5,4.5v14c0,2.5-2,4.5-4.5,4.5H5c-2.5,0-4.5-2-4.5-4.5V12C0.5,9.5,2.5,7.5,5,7.5z"/>
<path class="st1" d="M33,8c2.2,0,4,1.8,4,4v14c0,2.2-1.8,4-4,4H5c-2.2,0-4-1.8-4-4V12c0-2.2,1.8-4,4-4H33 M33,7H5c-2.8,0-5,2.2-5,5
	v14c0,2.8,2.2,5,5,5h28c2.8,0,5-2.2,5-5V12C38,9.2,35.8,7,33,7z"/>
<g>
	<rect x="4.6" y="13.8" class="st2" width="5.4" height="1.4"/>
	<rect x="4.6" y="16" class="st2" width="5.4" height="1.4"/>
	<rect x="4.6" y="18.1" class="st2" width="5.4" height="1.4"/>
	<g>
		<path class="st2" d="M10.7,13.8H13c0.5,0,0.8,0,1,0.1c0.2,0,0.4,0.1,0.6,0.2s0.3,0.3,0.4,0.5s0.2,0.4,0.2,0.7S15.1,15.8,15,16
			c-0.1,0.2-0.3,0.4-0.6,0.5c0.4,0.1,0.6,0.3,0.8,0.5s0.3,0.5,0.3,0.9c0,0.3-0.1,0.5-0.2,0.8c-0.1,0.2-0.3,0.4-0.5,0.6
			s-0.5,0.2-0.8,0.3c-0.2,0-0.7,0-1.4,0h-2L10.7,13.8L10.7,13.8z M11.9,14.8v1.3h0.8c0.5,0,0.7,0,0.8,0c0.2,0,0.4-0.1,0.5-0.2
			s0.2-0.3,0.2-0.5s0-0.3-0.1-0.4c-0.1-0.1-0.2-0.2-0.4-0.2c-0.1,0-0.4,0-1,0C12.7,14.8,11.9,14.8,11.9,14.8z M11.9,17v1.5H13
			c0.4,0,0.7,0,0.8,0c0.2,0,0.3-0.1,0.4-0.2c0.1-0.1,0.2-0.3,0.2-0.5s0-0.3-0.1-0.4s-0.2-0.2-0.4-0.3c-0.2-0.1-0.5-0.1-1-0.1H11.9z"
			/>
		<path class="st2" d="M21.8,19.6h-1.3L20,18.3h-2.3l-0.5,1.3H16l2.2-5.8h1.2L21.8,19.6z M19.6,17.3l-0.8-2.1L18,17.3H19.6z"/>
		<path class="st2" d="M22.4,19.6v-5.8h1.1l2.4,3.9v-3.9H27v5.8h-1.2l-2.3-3.8v3.8C23.5,19.6,22.4,19.6,22.4,19.6z"/>
		<path class="st2" d="M28.2,19.6v-5.8h1.2v2.6l2.4-2.6h1.6L31.1,16l2.3,3.5h-1.5l-1.6-2.7l-0.9,1v1.7h-1.2V19.6z"/>
	</g>
	<g>
		<path class="st2" d="M5.7,24.1V21H4.6v-0.6h3V21H6.5v3.2H5.7V24.1z"/>
		<path class="st2" d="M8.1,24.1v-3.8h1.6c0.4,0,0.7,0,0.9,0.1s0.3,0.2,0.4,0.4c0.1,0.2,0.2,0.4,0.2,0.6c0,0.3-0.1,0.5-0.3,0.7
			s-0.4,0.3-0.8,0.4c0.2,0.1,0.3,0.2,0.4,0.3c0.1,0.1,0.3,0.3,0.4,0.6l0.5,0.7h-0.9L10,23.3c-0.2-0.3-0.3-0.5-0.4-0.6
			c-0.1-0.1-0.2-0.1-0.2-0.2s-0.2,0-0.4,0H8.9v1.6C8.9,24.1,8.1,24.1,8.1,24.1z M8.9,21.9h0.6c0.4,0,0.6,0,0.7,0
			c0.1,0,0.2-0.1,0.2-0.2c0.1-0.1,0.1-0.2,0.1-0.3c0-0.1,0-0.2-0.1-0.3S10.2,21,10,21c-0.1,0-0.2,0-0.6,0H8.9V21.9z"/>
		<path class="st2" d="M15.4,24.1h-0.8l-0.3-0.9h-1.5l-0.3,0.9h-0.8l1.5-3.8H14L15.4,24.1z M14,22.6l-0.5-1.4L13,22.6H14z"/>
		<path class="st2" d="M15.8,24.1v-3.8h0.7l1.6,2.5v-2.5h0.7v3.8H18l-1.5-2.5v2.5H15.8z"/>
		<path class="st2" d="M19.4,22.9l0.7-0.1c0,0.3,0.1,0.4,0.3,0.6c0.1,0.1,0.3,0.2,0.6,0.2c0.2,0,0.4-0.1,0.6-0.2s0.2-0.2,0.2-0.4
			c0-0.1,0-0.2-0.1-0.2c-0.1-0.1-0.1-0.1-0.3-0.2c-0.1,0-0.3-0.1-0.6-0.2c-0.4-0.1-0.7-0.2-0.9-0.4c-0.2-0.2-0.4-0.5-0.4-0.8
			c0-0.2,0.1-0.4,0.2-0.5s0.3-0.3,0.5-0.4s0.5-0.1,0.8-0.1c0.5,0,0.8,0.1,1.1,0.3c0.2,0.2,0.4,0.5,0.4,0.8h-0.8
			c0-0.2-0.1-0.3-0.2-0.4s-0.3-0.1-0.5-0.1s-0.4,0-0.5,0.1s-0.1,0.1-0.1,0.2s0,0.2,0.1,0.2c0.1,0.1,0.3,0.2,0.7,0.3
			c0.4,0.1,0.7,0.2,0.8,0.3s0.3,0.2,0.4,0.4s0.2,0.4,0.2,0.6s-0.1,0.4-0.2,0.6s-0.3,0.3-0.5,0.4S21.4,24,21.1,24
			c-0.5,0-0.9-0.1-1.1-0.3S19.5,23.3,19.4,22.9z"/>
		<path class="st2" d="M23.2,24.1v-3.8h2.6V21H24v0.9h1.6v0.6H24v1.6H23.2z"/>
		<path class="st2" d="M26.5,24.1v-3.8h2.8V21h-2.1v0.8h1.9v0.6h-1.9v1h2.1V24h-2.8V24.1z"/>
		<path class="st2" d="M30,24.1v-3.8h1.6c0.4,0,0.7,0,0.9,0.1s0.3,0.2,0.4,0.4c0.1,0.2,0.2,0.4,0.2,0.6c0,0.3-0.1,0.5-0.3,0.7
			s-0.4,0.3-0.8,0.4c0.2,0.1,0.3,0.2,0.4,0.3c0.1,0.1,0.3,0.3,0.4,0.6l0.5,0.7h-0.9L32,23.3c-0.2-0.3-0.3-0.5-0.4-0.6
			s-0.2-0.1-0.2-0.2s-0.2,0-0.4,0h-0.2v1.6C30.8,24.1,30,24.1,30,24.1z M30.8,21.9h0.6c0.4,0,0.6,0,0.7,0s0.2-0.1,0.2-0.2
			c0.1-0.1,0.1-0.2,0.1-0.3c0-0.1,0-0.2-0.1-0.3S32.1,21,31.9,21c-0.1,0-0.2,0-0.6,0h-0.6v0.9H30.8z"/>
	</g>
</g>
</svg>
