<?xml version="1.0" encoding="utf-8"?>
<!-- Generator: Adobe Illustrator 23.0.2, SVG Export Plug-In . SVG Version: 6.00 Build 0)  -->
<svg version="1.1" id="Payment_Icons" xmlns="http://www.w3.org/2000/svg" xmlns:xlink="http://www.w3.org/1999/xlink" x="0px"
	 y="0px" viewBox="0 0 38 38" style="enable-background:new 0 0 38 38;" xml:space="preserve">
<style type="text/css">
	.st0{fill:#333333;}
	.st1{fill:#252525;}
	.st2{fill:#888888;}
</style>
<path class="st0" d="M5,7.5h28c2.5,0,4.5,2,4.5,4.5v14c0,2.5-2,4.5-4.5,4.5H5c-2.5,0-4.5-2-4.5-4.5V12C0.5,9.5,2.5,7.5,5,7.5z"/>
<path class="st1" d="M33,8c2.2,0,4,1.8,4,4v14c0,2.2-1.8,4-4,4H5c-2.2,0-4-1.8-4-4V12c0-2.2,1.8-4,4-4H33 M33,7H5c-2.8,0-5,2.2-5,5
	v14c0,2.8,2.2,5,5,5h28c2.8,0,5-2.2,5-5V12C38,9.2,35.8,7,33,7z"/>
<path class="st2" d="M23,21.2c0-1.3-0.8-2.5-2.1-2.9l-1.4-0.5c-0.9-0.4-1.6-0.6-1.6-1.3s0.5-1,1.4-1c0.8,0,1.6,0.3,2.2,0.8l1.2-1.5
	C22,14.1,21,13.7,20,13.5V12h-2v1.6c-1.4,0.3-2.5,1.5-2.6,3c0,1.3,0.9,2.5,2.2,2.9l1.4,0.6c0.9,0.4,1.5,0.6,1.5,1.3s-0.5,1-1.5,1
	c-1-0.1-1.9-0.5-2.6-1.1L15,23c0.8,0.8,1.9,1.3,3,1.5V26h2v-1.5C21.7,24.3,22.9,22.9,23,21.2z"/>
</svg>
