<?xml version="1.0" encoding="utf-8"?>
<!-- Generator: Adobe Illustrator 23.0.2, SVG Export Plug-In . SVG Version: 6.00 Build 0)  -->
<svg version="1.1" id="Payment_Icons" xmlns="http://www.w3.org/2000/svg" xmlns:xlink="http://www.w3.org/1999/xlink" x="0px"
	 y="0px" viewBox="0 0 38 38" style="enable-background:new 0 0 38 38;" xml:space="preserve">
<style type="text/css">
	.st0{fill:#333333;}
	.st1{fill:#252525;}
	.st2{fill:#888888;}
</style>
<path class="st0" d="M5,7.5h28c2.5,0,4.5,2,4.5,4.5v14c0,2.5-2,4.5-4.5,4.5H5c-2.5,0-4.5-2-4.5-4.5V12C0.5,9.5,2.5,7.5,5,7.5z"/>
<path class="st1" d="M33,8c2.2,0,4,1.8,4,4v14c0,2.2-1.8,4-4,4H5c-2.2,0-4-1.8-4-4V12c0-2.2,1.8-4,4-4H33 M33,7H5c-2.8,0-5,2.2-5,5
	v14c0,2.8,2.2,5,5,5h28c2.8,0,5-2.2,5-5V12C38,9.2,35.8,7,33,7z"/>
<g>
	<path class="st2" d="M24.8,23.2c0.2-0.4,0.3-0.9,0.5-1.3s0.3-0.7,0.5-1.1c0.1-0.3,0.4-0.3,0.6-0.2c0.2,0.1,0.4,0.2,0.3,0.5
		c-0.1,0.8-0.3,1.7-0.4,2.5c0,0.2,0,0.4,0,0.5s0.2,0.3,0.3,0.3c0.1,0,0.3-0.1,0.4-0.2c0.1-0.2,0.2-0.4,0.3-0.7
		c0.2,0,0.2,0.1,0.2,0.3c0,0.5-0.5,1-1,1.1c-0.4,0-0.6-0.1-0.8-0.5c-0.2-0.6-0.2-1.1-0.1-1.7c0-0.3,0.1-0.5,0.1-0.8
		c0,0.1-0.1,0.2-0.1,0.2c-0.4,0.9-0.7,1.8-0.8,2.7c0,0.2-0.2,0.3-0.3,0.2c-0.2-0.1-0.4-0.2-0.5-0.4c-0.6,0.5-0.9,0.4-1.2-0.2
		c-0.1,0.1-0.1,0.2-0.2,0.2c-0.4,0.5-1.1,0.5-1.5-0.1c-0.2-0.2-0.3-0.5-0.3-0.8c-0.1-0.9,0-1.8,0.5-2.6c0.2-0.4,0.5-0.7,0.9-0.9
		c0.5-0.2,0.9,0.1,1.1,0.6c0,0.1,0.1,0.1,0.1,0.1c0.2,0.1,0.2,0.2,0.2,0.4c-0.2,0.7-0.3,1.5-0.4,2.2c0,0.1,0,0.3,0,0.4
		s0.1,0.3,0.2,0.3s0.3,0,0.4-0.1s0.2-0.4,0.2-0.5c0.1-1.4,0.3-2.8,0.4-4.2c0-0.3,0.1-0.6,0.2-0.8c0-0.2,0.1-0.3,0.4-0.3
		c0.2,0.1,0.4,0.1,0.4,0.4c0,0.2-0.1,0.5-0.1,0.7c-0.2,1.2-0.4,2.4-0.6,3.6C24.7,23.2,24.7,23.2,24.8,23.2z M22.3,22.1
		c0.1-0.3,0.2-0.6,0.2-0.9c0-0.1,0-0.2-0.1-0.3c0,0-0.2,0.1-0.3,0.1C22,21,22,21.1,22,21.2c-0.5,0.9-0.7,2-0.6,3
		c0,0.1,0.1,0.3,0.2,0.3s0.3-0.1,0.3-0.2c0.4-0.6,0.5-1.3,0.7-2.1C22.5,22.3,22.4,22.2,22.3,22.1z"/>
	<path class="st2" d="M16.8,27c-0.6,0-0.7-0.2-0.7-0.7c0.1-0.4,0.1-0.9,0.2-1.3c0-0.1,0-0.2,0-0.3c-0.5,0.5-0.7,0.5-1.2,0
		c-0.5,0.7-1.1,0.5-1.3-0.1c-0.1,0.1-0.1,0.1-0.2,0.2c-0.5,0.6-1.2,0.5-1.6-0.1c-0.2-0.3-0.3-0.6-0.3-1c-0.1-0.8,0.1-1.6,0.5-2.4
		c0.2-0.4,0.5-0.8,1-0.9s0.9,0.1,1.1,0.6c0,0.1,0.1,0.1,0.1,0.1c0.3,0,0.2,0.2,0.2,0.4c-0.1,0.7-0.3,1.4-0.4,2c0,0.2,0,0.4,0,0.7
		c0,0.2,0.2,0.3,0.4,0.2c0.1-0.1,0.3-0.2,0.3-0.4c-0.1-1.1,0.2-2.2,0.5-3.2c0.1-0.2,0.2-0.3,0.4-0.2c0.2,0.1,0.4,0.2,0.3,0.5
		c-0.2,0.7-0.3,1.4-0.5,2.1c-0.1,0.3,0,0.6,0,0.9c0,0.1,0.1,0.2,0.1,0.3c0.1-0.1,0.3-0.1,0.3-0.2c0.2-0.4,0.4-0.9,0.5-1.3
		c0.2-0.7,0.2-1.4,0.4-2.1c0-0.2,0-0.4,0.3-0.4s0.5,0.2,0.4,0.5c-0.1,0.5-0.2,0.9-0.3,1.4c-0.2,1.4-0.4,2.7-0.6,4.1
		C16.8,26.7,16.8,26.8,16.8,27z M13.4,22.2c0.1-0.3,0.2-0.6,0.2-0.9c0-0.1-0.1-0.2-0.1-0.2s-0.2,0-0.2,0.1c-0.1,0.1-0.3,0.3-0.3,0.4
		c-0.2,0.7-0.3,1.3-0.5,2c0,0.2,0,0.5,0,0.8c0,0.1,0.1,0.3,0.2,0.3c0.1,0,0.2-0.1,0.3-0.2s0.1-0.2,0.2-0.3c0.1-0.4,0.3-0.8,0.4-1.2
		C13.7,22.6,13.9,22.2,13.4,22.2z"/>
	<path class="st2" d="M20.8,11.4c1.2,0,2.2,0,3.3,0c0.7,0,1.1,0.4,1.2,0.9c0.1,0.6-0.1,1.1-0.6,1.5c-0.1,0.1-0.2,0.1-0.3,0.2
		c0.2,0.1,0.4,0.2,0.6,0.3c0.6,0.4,0.9,1,0.7,1.7c-0.2,0.6-0.7,1-1.4,1.1c-1.1,0-2.3,0-3.4,0c0,0,0,0-0.1-0.1
		c0.5-0.1,0.4-0.5,0.4-0.8c0-1.4,0-2.8,0-4.1C21.2,11.8,21.3,11.5,20.8,11.4z M22.8,14.1C22.8,14,22.8,14,22.8,14.1
		c0.1-0.1,0.3-0.1,0.4-0.1c0.8-0.2,1.1-0.7,1-1.4c-0.1-0.6-0.5-0.9-1.2-1c-0.1,0-0.2,0-0.3,0c-0.2,0-0.3,0.1-0.3,0.3
		c0,1.6,0,3.1-0.1,4.7c0,0.2,0.1,0.3,0.3,0.3c0.3,0,0.6,0,0.9,0c0.4,0,0.7-0.2,0.9-0.5c0.4-0.8,0-1.8-0.9-2.1
		C23.3,14.1,23.1,14.1,22.8,14.1z"/>
	<path class="st2" d="M15.3,17.1c0.4-0.1,0.4-0.5,0.4-0.8c0-1.4,0-2.8,0-4.3c0-0.3-0.1-0.5-0.4-0.6v-0.1c1,0,2.1-0.1,3.1,0.1
		c1.3,0.1,2.2,1.1,2.3,2.4c0.1,0.9-0.1,1.7-0.7,2.4c-0.5,0.6-1.1,0.9-1.9,0.9C17.2,17.1,16.3,17.1,15.3,17.1L15.3,17.1z M16.8,14.2
		L16.8,14.2c0,0.8,0,1.5,0,2.3c0,0.3,0.1,0.4,0.4,0.4c0.2,0,0.4,0,0.7,0c0.7,0,1.2-0.4,1.5-1.1c0.3-0.6,0.3-1.3,0.2-2
		c-0.2-1.5-0.9-2.2-2.4-2.3c-0.3,0-0.4,0.1-0.4,0.4C16.8,12.7,16.8,13.4,16.8,14.2z"/>
	<path class="st2" d="M26,17c0-0.3,0-0.7,0-1h0.1c0.2,0.9,1.9,1.1,2.5,0.6c0.3-0.3,0.5-0.7,0.4-1.1c-0.1-0.4-0.4-0.6-0.8-0.8
		c-0.5-0.1-1-0.3-1.4-0.5c-0.6-0.3-0.9-0.8-0.8-1.4c0.1-0.7,0.4-1.1,1-1.3c0.3-0.1,0.6-0.2,0.9-0.2c0.4,0,0.9,0.1,1.3,0.1
		c0.2,0,0.4,0,0.6,0c0,0.3,0,0.6,0,1c-0.2-0.5-0.5-0.8-0.9-0.8c-0.3,0-0.7-0.1-1,0c-0.5,0.1-0.7,0.5-0.7,1c0,0.4,0.2,0.7,0.7,0.8
		c0.3,0.1,0.6,0.2,1,0.3c1.1,0.3,1.6,1.1,1.4,2.2c-0.2,0.7-0.6,1-1.3,1.2c-0.8,0.2-1.5,0.1-2.3-0.1C26.3,16.9,26.1,17,26,17z"/>
	<path class="st2" d="M9.6,24.8c-0.1,0.1-0.1,0.3-0.2,0.5c-0.2,0.3-0.4,0.4-0.7,0.2c-0.1,0-0.1-0.2-0.1-0.2c0.1-0.7,0.2-1.4,0.3-2.1
		c0-0.1,0-0.1,0-0.2c-0.2,0-0.3-0.1-0.4-0.1c-0.2,0-0.2-0.1-0.2-0.3c0.1-0.1,0.1-0.2,0.3-0.2c0.1,0,0.2,0,0.4,0.1
		c0.1-0.6,0.2-1.3,0.3-1.9c0-0.2,0.1-0.4,0.1-0.6s0.2-0.3,0.4-0.2c0.2,0,0.3,0.1,0.3,0.4c-0.1,0.6-0.2,1.3-0.3,2c0,0.1,0,0.2,0,0.3
		c0.7,0,1.4-0.7,1.5-1.5c0.1-0.9-0.3-1.4-1.2-1.4c-0.7,0-1.2,0.3-1.5,1H8.5c-0.6-0.3-0.7-0.4-0.2-0.9c0.6-0.6,1.9-0.7,2.8-0.2
		c0.7,0.4,1,1,0.8,1.8c-0.1,0.6-0.5,1.2-1,1.5c-0.4,0.2-0.8,0.3-1.3,0.5c-0.1,0.5-0.1,1-0.2,1.6C9.4,24.6,9.5,24.6,9.6,24.8z"/>
	<path class="st2" d="M18.5,24.5c0.6-0.1,1.1-0.2,1.7-0.2c0.4,0,0.6,0.2,0.6,0.6c-0.5,0.1-1.1,0.1-1.6,0.2c-0.2,0-0.3,0.1-0.5,0.1
		s-0.3,0.1-0.3,0.3l-0.1,0.1c-0.2,0-0.8-0.3-0.9-0.4c-0.1-0.2-0.1-0.3,0.1-0.3s0.2-0.1,0.3-0.3c0.2-1.7,0.5-3.3,0.7-5
		c0-0.1,0.1-0.2,0.1-0.4c0-0.2,0.1-0.3,0.3-0.3c0.3,0.1,0.5,0.2,0.4,0.4c-0.2,1.2-0.4,2.4-0.7,3.7C18.6,23.5,18.6,24,18.5,24.5z"/>
	<path class="st2" d="M30,20.4c-0.2,0.5-0.3,0.9-0.5,1.4c-0.3,0.6-0.6,1.2-0.8,1.9c0,0.1-0.1,0.1-0.1,0.2c-0.1,0-0.2,0-0.2,0
		s-0.1-0.1,0-0.2c0.1-0.4,0.1-0.8,0.2-1.2c0.2-0.7,0.4-1.3,0.5-1.9c0.1-0.3,0.2-0.4,0.5-0.5C29.9,20,30,20,30,20.4z"/>
	<path class="st2" d="M28.4,24.2c0.3,0,0.5,0.2,0.5,0.4c0,0.3-0.2,0.5-0.5,0.5s-0.5-0.2-0.5-0.4C27.9,24.4,28.1,24.2,28.4,24.2z"/>
	<path class="st0" d="M22.3,22.1c0.1,0,0.2,0.1,0.3,0.2c-0.1,0.7-0.3,1.4-0.7,2.1c-0.1,0.1-0.2,0.2-0.3,0.2c-0.1,0-0.2-0.2-0.2-0.3
		c-0.1-1.1,0.1-2.1,0.6-3c0-0.1,0.1-0.1,0.1-0.2c0.1-0.1,0.2-0.1,0.3-0.1c0.1,0.1,0.1,0.2,0.1,0.3C22.5,21.6,22.4,21.8,22.3,22.1z"
		/>
	<path class="st0" d="M13.4,22.2c0.5,0.1,0.3,0.5,0.2,0.8c-0.1,0.4-0.3,0.8-0.4,1.2c0,0.1-0.1,0.2-0.2,0.3c-0.1,0.1-0.2,0.2-0.3,0.2
		s-0.2-0.2-0.2-0.3c0-0.3-0.1-0.5,0-0.8c0.1-0.7,0.3-1.3,0.5-2c0-0.2,0.2-0.3,0.3-0.4c0-0.1,0.2-0.1,0.2-0.1c0.1,0,0.1,0.2,0.1,0.2
		C13.6,21.5,13.5,21.8,13.4,22.2z"/>
	<path class="st0" d="M22.8,14.1c0.2,0.1,0.5,0.1,0.7,0.2c0.9,0.3,1.3,1.3,0.9,2.1c-0.2,0.4-0.5,0.5-0.9,0.5c-0.3,0-0.6,0-0.9,0
		c-0.2,0-0.3-0.1-0.3-0.3c0-1.6,0.1-3.1,0.1-4.7c0-0.2,0.1-0.3,0.3-0.3c0.1,0,0.2,0,0.3,0c0.8,0,1.2,0.3,1.2,1
		c0.1,0.8-0.2,1.2-1,1.4C23.1,14,23,14,22.8,14.1C22.8,14,22.8,14,22.8,14.1z"/>
	<path class="st0" d="M16.8,14.2c0-0.7,0-1.5,0-2.2c0-0.3,0.1-0.4,0.4-0.4c1.5,0,2.2,0.7,2.4,2.3c0.1,0.7,0.1,1.3-0.2,2
		c-0.3,0.7-0.8,1.1-1.5,1.1c-0.2,0-0.4,0-0.7,0c-0.3,0-0.4-0.1-0.4-0.4C16.8,15.7,16.8,14.9,16.8,14.2L16.8,14.2z"/>
</g>
<path class="st2" d="M14.2,12.3c0,0,0-0.3-0.2-0.5c-0.3-0.2-0.6,0-0.6,0l0,0l0,0c0,0,0.2-0.3,0-0.6C13.2,11,13,11,13,11
	s-0.9,0.5-1.9,0.5S9.2,11,9.2,11s-0.3,0-0.5,0.2c-0.2,0.3,0,0.6,0,0.6l0,0l0,0c0,0-0.3-0.2-0.6,0s-0.2,0.5-0.2,0.5s0.5,0.9,0.5,1.9
	s-0.5,1.9-0.5,1.9s0,0.3,0.2,0.5c0.3,0.2,0.6,0,0.6,0l0,0l0,0c0,0-0.2,0.3,0,0.6s0.5,0.2,0.5,0.2s0.9-0.5,1.9-0.5s1.9,0.5,1.9,0.5
	s0.3,0,0.5-0.2c0.2-0.3,0-0.6,0-0.6l0,0c0,0,0.3,0.2,0.6,0s0.2-0.5,0.2-0.5s-0.5-0.9-0.5-1.9S14.2,12.3,14.2,12.3z"/>
<polygon class="st0" points="11.6,14 13.1,12.2 11.3,13.7 11.1,13.7 10.9,13.7 9.1,12.2 10.6,14 10.6,14.4 9.1,16.2 10.9,14.7 
	11.1,14.7 11.3,14.7 13.1,16.2 11.6,14.4 "/>
</svg>
