<?xml version="1.0" encoding="utf-8"?>
<!-- Generator: Adobe Illustrator 23.0.2, SVG Export Plug-In . SVG Version: 6.00 Build 0)  -->
<svg version="1.1" id="Layer_1" xmlns="http://www.w3.org/2000/svg" xmlns:xlink="http://www.w3.org/1999/xlink" x="0px" y="0px"
	 viewBox="0 0 24 24" style="enable-background:new 0 0 24 24;" xml:space="preserve">
<style type="text/css">
	.st0{fill:#FFFFFF;}
</style>
<path class="st0" d="M12,2c5.5,0,10,4.5,10,10s-4.5,10-10,10S2,17.5,2,12S6.5,2,12,2z M12,0C5.4,0,0,5.4,0,12s5.4,12,12,12
	s12-5.4,12-12S18.6,0,12,0z M13.3,17c0,0.7-0.6,1.3-1.3,1.3c-0.7,0-1.3-0.6-1.3-1.3s0.6-1.2,1.3-1.2C12.7,15.7,13.3,16.3,13.3,17z
	 M14.6,7c-0.6-0.6-1.5-1-2.6-1c-2.2,0-3.6,1.6-3.6,4h2c0-1.5,0.8-2,1.5-2c0.6,0,1.3,0.4,1.4,1.2c0.1,0.8-0.4,1.3-1,1.8
	C11,12.4,11,13,11,14.5h2c0-0.7,0-1.2,0.9-2.2c0.7-0.7,1.5-1.6,1.5-3C15.5,8.4,15.2,7.6,14.6,7z"/>
</svg>
