<?xml version="1.0" encoding="utf-8"?>
<!-- Generator: Adobe Illustrator 23.0.2, SVG Export Plug-In . SVG Version: 6.00 Build 0)  -->
<svg version="1.1" id="Payment_Icons" xmlns="http://www.w3.org/2000/svg" xmlns:xlink="http://www.w3.org/1999/xlink" x="0px"
	 y="0px" viewBox="0 0 38 38" style="enable-background:new 0 0 38 38;" xml:space="preserve">
<style type="text/css">
	.st0{fill:#333333;}
	.st1{fill:#252525;}
	.st2{fill:#888888;}
</style>
<path class="st0" d="M5,7.5h28c2.5,0,4.5,2,4.5,4.5v14c0,2.5-2,4.5-4.5,4.5H5c-2.5,0-4.5-2-4.5-4.5V12C0.5,9.5,2.5,7.5,5,7.5z"/>
<path class="st1" d="M33,8c2.2,0,4,1.8,4,4v14c0,2.2-1.8,4-4,4H5c-2.2,0-4-1.8-4-4V12c0-2.2,1.8-4,4-4H33 M33,7H5c-2.8,0-5,2.2-5,5
	v14c0,2.8,2.2,5,5,5h28c2.8,0,5-2.2,5-5V12C38,9.2,35.8,7,33,7z"/>
<g>
	<path class="st2" d="M30.8,20.1c-0.2,0.5-0.3,0.8-0.4,1.1c-0.1,0.3-0.3,0.4-0.6,0.4c-0.3,0-0.6,0.1-0.7-0.3c-0.5-1.3-1-2.7-1.5-4
		c0-0.1-0.1-0.2-0.1-0.4c0.4,0,0.7,0,1,0c0.1,0,0.3,0.2,0.3,0.4c0.3,0.8,0.6,1.7,1,2.6c0.1-0.3,0.2-0.5,0.3-0.8
		c0.1-0.4,0.3-0.8,0.4-1.2c0.3-1.1,0.3-1.1,1.5-0.9c-0.3,1-0.9,1.9,0,2.9c0.4-1,0.7-2,1.1-3c0.4,0,0.8,0,1.3,0
		c-0.4,0.9-0.7,1.8-1.1,2.6c-0.2,0.6-0.5,1.1-0.7,1.7c-0.1,0.4-0.3,0.4-0.7,0.4c-0.3,0-0.5,0-0.6-0.4C31.1,20.9,31,20.6,30.8,20.1z"
		/>
	<path class="st2" d="M18.5,18.8c0,0.9,0,1.8,0,2.8c-0.4,0-0.7,0-1.1,0c0-1.5,0-3.1,0-4.6c1.1-0.2,1.1-0.2,1.7,0.7
		c0.4,0.6,0.8,1.2,1.3,1.8c0-0.8,0-1.7,0-2.5c0.4,0,0.7,0,1.1,0c0,0.1,0,0.3,0,0.4c0,1.3,0,2.5,0,3.8c0,0.4-0.1,0.5-0.5,0.5
		c-0.5,0-0.8-0.1-1.1-0.6c-0.4-0.8-0.9-1.5-1.3-2.2C18.5,18.8,18.5,18.8,18.5,18.8z"/>
	<path class="st2" d="M23.8,18.1c0.4,0.5,0.7,0.8,1,1.1c0.6-0.8,1.1-1.5,1.7-2.2c1.2,0.8,1.4,2.6,0.6,3.8c-0.9,1.3-2.6,1.6-3.9,0.7
		c-1.3-0.9-1.5-2.6-0.6-4c0.6-0.9,2.4-1.5,3.4-0.7c-0.1,0.4-0.3,0.5-0.8,0.4c-0.9-0.3-1.9,0.2-2.3,1.1c-0.4,0.9-0.2,1.9,0.5,2.5
		c0.7,0.6,1.7,0.7,2.5,0.2c0.8-0.5,1.1-1.5,0.8-2.4c0-0.1-0.1-0.2-0.2-0.3c-0.6,0.8-1.1,1.5-1.7,2.4c-0.5-0.6-0.9-1.1-1.3-1.6
		C23.5,18.9,23.7,18.5,23.8,18.1z"/>
	<path class="st2" d="M13.1,21.6c-0.2,0-0.4,0-0.6,0c-0.3,0-0.5-0.1-0.6-0.4c-0.1-0.3-0.3-0.4-0.6-0.4c-0.2,0-0.4,0-0.6,0
		c-0.4,0-0.8,0-0.9,0.6c0,0.1-0.3,0.2-0.5,0.2c-0.2,0-0.4,0-0.7,0c0-0.2,0.1-0.3,0.1-0.4c0.5-1.3,1-2.7,1.5-4
		c0.1-0.2,0.3-0.3,0.5-0.3c0.3,0,0.6-0.2,0.8,0.2c0.5,1.4,1.1,2.8,1.6,4.2C13.1,21.4,13.1,21.5,13.1,21.6z M11.3,19.8
		c-0.2-0.5-0.3-1-0.5-1.4c0,0-0.1,0-0.1,0c-0.2,0.5-0.3,0.9-0.5,1.4C10.6,19.8,10.9,19.8,11.3,19.8z"/>
	<path class="st2" d="M5.8,19.9c0,0.6,0,1.1,0,1.6c-0.1,0.1-0.1,0.1-0.1,0.1c-1,0.1-1,0.1-1-1c0-1.1,0-2.2,0-3.3
		c0-0.4,0.1-0.5,0.5-0.5c0.6,0,1.1,0,1.7,0c0.8,0,1.5,0.6,1.5,1.5c0,0.8-0.6,1.5-1.4,1.6C6.5,19.9,6.2,19.9,5.8,19.9z M5.7,17.8
		c0.1,0.4,0.1,0.8,0.2,1.1c0.1,0.1,0.6,0,0.9-0.1C7,18.7,7,18.3,6.9,18.1C6.7,17.6,6.2,17.8,5.7,17.8z"/>
	<path class="st2" d="M14,21.5c0.5-1.9-0.8-3.1-1.5-4.7c0.4,0,0.8,0,1.1,0c0.1,0,0.3,0.2,0.3,0.3c0.2,0.4,0.4,0.9,0.7,1.5
		c0.2-0.5,0.5-0.8,0.6-1.2c0.2-0.5,0.4-0.6,0.9-0.6c0.2,0,0.4,0,0.7,0c-0.4,0.7-0.7,1.3-1.1,1.9c-0.4,0.6-0.5,1.2-0.5,1.9
		C15.2,21.7,15.2,21.7,14,21.5z"/>
</g>
</svg>
