<?xml version="1.0" encoding="utf-8"?>
<!-- Generator: Adobe Illustrator 23.0.2, SVG Export Plug-In . SVG Version: 6.00 Build 0)  -->
<svg version="1.1" id="Layer_1" xmlns="http://www.w3.org/2000/svg" xmlns:xlink="http://www.w3.org/1999/xlink" x="0px" y="0px"
	 viewBox="0 0 150 50" style="enable-background:new 0 0 150 50;" xml:space="preserve">
<style type="text/css">
	.st0{fill:#FFFFFF;}
</style>
<circle class="st0" cx="25" cy="25" r="20"/>
<circle class="st0" cx="75" cy="25" r="20"/>
<circle class="st0" cx="125" cy="25" r="20"/>
<path id="path22" d="M132.1,20.6c-0.5,0.2-1.1,0.4-1.7,0.5c0.6-0.4,1.1-0.9,1.3-1.6c-0.6,0.3-1.2,0.6-1.8,0.7
	c-0.5-0.6-1.3-0.9-2.1-0.9c-1.6,0-2.9,1.3-2.9,2.9c0,0.2,0,0.4,0.1,0.7c-2.4-0.1-4.5-1.3-6-3c-0.2,0.4-0.4,0.9-0.4,1.5
	c0,1,0.5,1.9,1.3,2.4c-0.5,0-0.9-0.1-1.3-0.4l0,0c0,1.4,1,2.6,2.3,2.8c-0.2,0.1-0.5,0.1-0.8,0.1c-0.2,0-0.4,0-0.5-0.1
	c0.4,1.2,1.4,2,2.7,2c-1,0.8-2.2,1.2-3.6,1.2c-0.2,0-0.5,0-0.7,0c1.3,0.8,2.8,1.3,4.4,1.3c5.3,0,8.3-4.4,8.3-8.3c0-0.1,0-0.3,0-0.4
	C131.1,21.7,131.6,21.2,132.1,20.6"/>
<path id="rect3687" d="M22,17.8c-2.3,0-4.2,1.9-4.2,4.2v6c0,2.3,1.9,4.2,4.2,4.2h6c2.3,0,4.2-1.9,4.2-4.2v-6c0-2.3-1.9-4.2-4.2-4.2
	H22z M22,19.1h6c1.6,0,2.9,1.3,2.9,2.9v6c0,1.6-1.3,2.9-2.9,2.9h-6c-1.6,0-2.9-1.3-2.9-2.9v-6C19,20.4,20.3,19.1,22,19.1z
	 M28.9,20.3c-0.5,0-0.9,0.4-0.9,0.9s0.4,0.9,0.9,0.9s0.9-0.4,0.9-0.9C29.7,20.7,29.3,20.3,28.9,20.3z M25,21.3c-2,0-3.7,1.7-3.7,3.7
	s1.7,3.7,3.7,3.7s3.7-1.7,3.7-3.7S27,21.3,25,21.3z M25,22.5c1.4,0,2.5,1.1,2.5,2.5s-1.1,2.5-2.5,2.5s-2.5-1.1-2.5-2.5
	S23.6,22.5,25,22.5z"/>
<path id="path4180" d="M76.7,17.9c-1.9,0-3.2,1.2-3.2,3.3v1.9h-2.2v2.5h2.2v6.5h2.6v-6.5h2.2l0.3-2.5h-2.5v-1.6
	c0-0.7,0.2-1.2,1.2-1.2h1.3V18C78.4,18,77.7,17.9,76.7,17.9L76.7,17.9z"/>
</svg>
