<?xml version="1.0" encoding="utf-8"?>
<!-- Generator: Adobe Illustrator 23.0.2, SVG Export Plug-In . SVG Version: 6.00 Build 0)  -->
<svg version="1.1" id="iconmonstr" xmlns="http://www.w3.org/2000/svg" xmlns:xlink="http://www.w3.org/1999/xlink" x="0px" y="0px"
	 viewBox="0 0 24 24" style="enable-background:new 0 0 24 24;" xml:space="preserve">
<style type="text/css">
	.st0{fill:#FFFFFF;}
</style>
<path id="printer-3" class="st0" d="M14,20H8v-1h6V20z M24,5v13h-4v6H4v-6H0V5h4V0h16v5H24z M18,15H6v7h12V15z M18,2H6v3h12V2z
	 M22,7.5C22,7.224,21.776,7,21.5,7S21,7.224,21,7.5S21.224,8,21.5,8S22,7.776,22,7.5z M16,17H8v1h8V17z"/>
</svg>
