<?xml version="1.0" encoding="utf-8"?>
<!-- Generator: Adobe Illustrator 23.0.2, SVG Export Plug-In . SVG Version: 6.00 Build 0)  -->
<svg version="1.1" id="Layer_1" xmlns="http://www.w3.org/2000/svg" xmlns:xlink="http://www.w3.org/1999/xlink" x="0px" y="0px"
	 viewBox="0 0 24 24" style="enable-background:new 0 0 24 24;" xml:space="preserve">
<style type="text/css">
	.st0{fill-rule:evenodd;clip-rule:evenodd;fill:#FFFFFF;}
</style>
<g>
	<path class="st0" d="M22,1h-2v1h4v5l-2,2v13h2v2H0v-2h2v-9h12V9l-2-2V2h4V1h-2V0h8V1L22,1z M9,19H6v4h3V19L9,19z M14,19h-4v4h4V19
		L14,19z M18,19h-3v4h3V19L18,19z M16,4h-2v2l1,1h1V4L16,4z M19,4h-2v3h2V4L19,4z M22,4h-2v3h1l1-1V4L22,4z"/>
</g>
</svg>
