<?xml version="1.0" encoding="utf-8"?>
<!-- Generator: Adobe Illustrator 23.0.2, SVG Export Plug-In . SVG Version: 6.00 Build 0)  -->
<svg version="1.1" id="Layer_1" xmlns="http://www.w3.org/2000/svg" xmlns:xlink="http://www.w3.org/1999/xlink" x="0px" y="0px"
	 viewBox="0 0 24 24" style="enable-background:new 0 0 24 24;" xml:space="preserve">
<style type="text/css">
	.st0{fill-rule:evenodd;clip-rule:evenodd;fill:#FFFFFF;}
</style>
<g>
	<path class="st0" d="M3.8,19H3c-0.8,0-1.6-0.3-2.1-0.9C0.3,17.6,0,16.8,0,16c0-1.5,0-3,0-3C0,5.8,5.4,0,12,0s12,5.8,12,13
		c0,0,0,1.5,0,3c0,0.8-0.3,1.6-0.9,2.1C22.6,18.7,21.8,19,21,19h-0.8c-2.7,4.6-6.9,5-8.2,5S6.5,23.6,3.8,19L3.8,19z M20,13.1
		c-0.6,0.2-1.3-0.2-1.3-0.8c0-0.3,0-0.6-0.1-0.9c-1.8-0.3-3.6-1.9-3.7-3.7c-1.3,2-4.5,4.2-7,4.2C9,11.2,9.8,9.1,9.8,8.4
		c-0.6,1.1-2.9,3.1-4.6,3.5c0,0.2,0,0.3,0,0.5c0,0.6-0.7,1-1.3,0.8V17c0.3,0.3,0.6,0.5,1,0.6c0.2,0.1,0.4,0.2,0.5,0.4
		c2.4,4,5.6,4,6.6,4c0.9,0,3.7,0,5.9-3.2c-1.1,0.4-2.3,0.6-3.8,0.7c-0.4,0.6-1.2,1-2.1,1c-1.3,0-2.3-0.8-2.3-1.7c0-1,1-1.8,2.3-1.8
		c0.9,0,1.7,0.4,2.1,1c1.9,0,4.3-0.3,5.9-2.6V13.1L20,13.1z M9,12.5c0.7,0,1.2,0.7,1.2,1.5S9.6,15.5,9,15.5c-0.7,0-1.2-0.7-1.2-1.5
		S8.3,12.5,9,12.5L9,12.5z M15,12.5c0.7,0,1.2,0.7,1.2,1.5s-0.6,1.5-1.2,1.5c-0.7,0-1.2-0.7-1.2-1.5C13.8,13.2,14.3,12.5,15,12.5
		L15,12.5z M20.5,11h1.4c-0.9-5.1-5-9-9.9-9s-9,3.9-9.8,9h1.4C4,7,6.9,3.3,12,3.3S20,7,20.5,11L20.5,11z"/>
</g>
</svg>
