<?xml version="1.0" encoding="utf-8"?>
<!-- Generator: Adobe Illustrator 23.0.2, SVG Export Plug-In . SVG Version: 6.00 Build 0)  -->
<svg version="1.1" id="Layer_1" xmlns="http://www.w3.org/2000/svg" xmlns:xlink="http://www.w3.org/1999/xlink" x="0px" y="0px"
	 viewBox="0 0 24 24" style="enable-background:new 0 0 24 24;" xml:space="preserve">
<style type="text/css">
	.st0{fill-rule:evenodd;clip-rule:evenodd;fill:#FFFFFF;}
</style>
<g>
	<path class="st0" d="M11.207,16.434l3.769-1.866l-3.863-3.295l1.195-0.591l6.253,2.111l2.987-1.479
		c0.788-0.395,2.089-0.289,2.384,0.307C23.979,11.716,24,11.824,24,11.94c-0.003,0.609-0.613,1.434-1.269,1.764l-2.987,1.479
		l-2.111,6.253l-1.195,0.591l-0.279-5.069l-3.769,1.866l-0.778,1.873l-0.835,0.414l-0.293-2.831L8.41,16.331l0.836-0.414
		L11.207,16.434L11.207,16.434z M9.02,20.628C4.2,22.169,0.391,18.252,0,16c1.573,1.733,4.624,3.261,7.973,2.256l0.886,0.839
		L9.02,20.628L9.02,20.628z M0.134,13.643C0.046,13.108,0,12.559,0,12C0,6.477,4.477,2,10,2c4.927,0,9.023,3.565,9.848,8.256
		c-0.47,0.233-1.606,0.802-1.606,0.802c-1.25-0.475-4.441-1.667-4.441-1.667c-0.645-0.227-1.339-0.455-1.687-0.338
		c0.086-0.379-0.164-0.72-0.541-0.994c-0.093-0.068-0.844-0.588-0.641-0.246c0.144,0.241,0.74,0.601,0.658,0.654
		c-0.033,0.022-0.173-0.238-0.173-0.048c0.044-0.112,0.016,0.483-0.087,0.288c-0.045-0.074,0.075-0.115,0.005-0.222
		c0-0.071-0.189-0.14-0.227-0.188c-0.104-0.13-0.381-0.415-0.531-0.483c-0.041-0.019-0.636,0.073-0.686,0.092
		C9.832,7.987,9.782,8.074,9.742,8.165c-0.125,0.046-0.24,0.105-0.35,0.178C9.307,8.42,9.327,8.581,9.262,8.637
		c-0.058,0.05-0.638,0.242-0.641,0.25c0.025-0.063-0.406-0.143-0.378-0.268c0.032-0.137,0.178-0.567,0.14-0.723
		c-0.04-0.165,0.895,0.236,0.956-0.197c0.024-0.187,0.038-0.406-0.262-0.437c0.057,0.006,0.58-0.205,0.666-0.3
		c0.122-0.14,0.401-0.37,0.604-0.37c0.236,0,0.185-0.344,0.294-0.512c0.109,0.044-0.059,0.313,0.072,0.422
		c-0.008-0.085,0.371,0.047,0.408,0.028c0.087-0.047,0.571-0.019,0.496-0.247c-0.084-0.231,0.042-0.162,0.15-0.211
		c-0.019,0.008,0.283-0.515,0.335-0.344c-0.035-0.176-0.35,0.062-0.46,0.054c-0.254-0.021-0.147-0.434-0.05-0.555
		c0.074-0.096-0.203-0.213-0.206-0.03c-0.005,0.274-0.26,0.522-0.202,0.887c0.091,0.549-0.612-0.132-0.673-0.095
		c-0.234,0.141-0.424-0.178-0.304-0.371c0.124-0.196,0.42-0.186,0.544-0.396c0.086-0.148,0.186-0.32,0.321-0.433
		c0.445-0.374,0.568-0.075,1.012-0.034c0.435,0.04,0.147,0.103,0.088,0.27c-0.058,0.159,0.238,0.215,0.34,0.082
		c0.059-0.076,0.192-0.269,0.249-0.411c0.074-0.185,0.751-0.164,0.278-0.447c-0.312-0.186-1.67-0.56-2.58-0.56
		c-0.197,0-0.334,0.218-0.484,0.343C9.678,4.278,8.919,4.761,8.496,4.614c-0.433-0.149-1.359,0.55-1.507,0.555
		C6.934,5.172,6.991,4.64,7.287,4.602C7.158,4.62,8.326,4.012,8.294,3.885c-0.038-0.15-2.332,0.685-2.23,0.853
		c0.048,0.076,0.249,0.076-0.013,0.245C5.901,5.073,5.74,5.65,5.599,5.65C5.178,5.834,5.152,5.288,4.684,5.991
		C4.591,6.127,4.092,6.138,3.938,6.292C2.832,7.467,2.067,8.956,1.789,10.61c-0.011,0.067,0.278,0.188,0.316,0.234
		c0.093,0.112,0.093,0.593,0.139,0.751c0.115,0.398,0.399,0.62,0.617,0.982c0.128,0.216,0.341,0.762,0.274,0.988
		c0.091-0.148,0.892,0.68,1.038,0.852c0.345,0.406,0.612,0.898,0.051,1.299c-0.146,0.106,0.125,0.658,0.108,0.97
		C1.78,16.193,0.134,13.643,0.134,13.643L0.134,13.643z M10.442,14.475c-0.01-0.166-0.114-0.363-0.331-0.3
		c-0.47,0.137-0.327-0.368-0.669-0.344c-0.247,0.017-0.45,0.174-0.679,0.243C8.475,14.16,8.18,14.006,7.895,13.97
		c-1.173-0.148-1.555-1.488-1.249-2.456c0.031-0.158-0.095-0.452-0.04-0.574c0.131-0.293,0.401-0.623,0.635-0.845
		c0.131-0.125,0.301-0.093,0.456-0.19c0.239-0.151,0.242-0.461,0.476-0.651c0.334-0.272,0.789-0.266,1.224-0.323
		c0.231-0.031,1.113-0.222,1.252-0.05c0,0.031,0.151,0.48-0.003,0.478l-0.013-0.001c0.005,0.001,0.009,0.001,0.013,0.001
		c0.089,0.008,0.186,0.05,0.288,0.106L10.359,9.75c-0.08,0.042-0.101,0.051-0.177,0.101c-0.142,0.093-0.27,0.207-0.378,0.337
		c-0.305,0.369-0.442,0.859-0.373,1.333c0.025,0.168,0.075,0.332,0.148,0.485s0.169,0.295,0.284,0.42
		c0.062,0.066,0.08,0.08,0.147,0.141l1.901,1.621l-0.887,0.44L10.442,14.475L10.442,14.475z M10.952,8.809
		c-0.029-0.055,0.285-0.084,0.341-0.084C11.355,8.732,11.131,9.101,10.952,8.809L10.952,8.809z M9.16,6.249
		C9.126,6.301,9.237,6.213,9.25,6.223c0.054,0.045-0.06,0.079-0.043,0.114c0.072,0.129,0.019,0.206,0.007,0.276
		C9.202,6.684,9.127,6.652,9.09,6.69C9.046,6.746,9.305,6.753,9.307,6.761c0.01,0.028-0.312,0.074-0.252,0.142
		c0.079,0.114,0.687-0.162,0.59-0.146c0.187-0.095,0.024-0.105-0.081-0.159C9.528,6.419,9.498,6.142,9.387,6.032
		C9.367,5.991,9.479,5.973,9.46,5.947C9.287,5.698,9.16,6.249,9.16,6.249L9.16,6.249z M8.73,6.703
		C8.659,6.732,8.589,6.687,8.658,6.617c0.017-0.015,0.084-0.06,0.073-0.089C8.725,6.512,8.707,6.51,8.724,6.488
		C8.74,6.469,8.762,6.431,8.782,6.416c0.02-0.015,0.041-0.001,0.06-0.015c0.034-0.029,0.07-0.098,0.124-0.087
		c0.036,0.008,0.121,0.078,0.092,0.123C9.027,6.481,9.003,6.396,8.992,6.519c-0.015,0.139-0.155,0.138-0.26,0.183
		C8.716,6.71,8.723,6.707,8.73,6.703l0.002-0.001C8.749,6.695,8.739,6.7,8.73,6.703L8.73,6.703z"/>
</g>
</svg>
