<?xml version="1.0" encoding="utf-8"?>
<!-- Generator: Adobe Illustrator 23.0.2, SVG Export Plug-In . SVG Version: 6.00 Build 0)  -->
<svg version="1.1" id="Layer_1" xmlns="http://www.w3.org/2000/svg" xmlns:xlink="http://www.w3.org/1999/xlink" x="0px" y="0px"
	 viewBox="0 0 24 24" style="enable-background:new 0 0 24 24;" xml:space="preserve">
<style type="text/css">
	.st0{fill:#FFFFFF;}
</style>
<g>
	<path class="st0" d="M20.624,22.5L19,21.631L17.375,22.5l0.324-1.813l-1.328-1.277l1.825-0.252L19,17.5l0.804,1.658l1.825,0.252
		L20.3,20.687L20.624,22.5L20.624,22.5z M13.624,22.5L12,21.631L10.375,22.5l0.325-1.813L9.371,19.41l1.825-0.252L12,17.5
		l0.804,1.658l1.825,0.252L13.3,20.687L13.624,22.5L13.624,22.5z M6.624,22.5L5,21.631L3.375,22.5L3.7,20.687L2.371,19.41
		l1.825-0.252L5,17.5l0.804,1.658l1.825,0.252L6.3,20.687L6.624,22.5L6.624,22.5z M23,16H1c-0.552,0-1,0.447-1,1v6
		c0,0.553,0.448,1,1,1h22c0.553,0,1-0.447,1-1v-6C24,16.447,23.553,16,23,16L23,16L23,16z M0.002,15H5
		c0.008-1.214-0.001-2.289,0-3.013c0.005-3.993,1.749-3.116,1.749-6.663C6.749,3.817,5.766,3,4.501,3
		C2.632,3,1.332,4.787,3.102,8.129c0.581,1.099-0.62,1.359-1.91,1.657C0.074,10.044,0,10.833,0,11.779
		C0,11.924,0.002,14.836,0.002,15L0.002,15L0.002,15z M22.808,9.786c-1.29-0.298-2.491-0.558-1.91-1.657
		C22.668,4.787,21.368,3,19.499,3c-1.265,0-2.248,0.817-2.248,2.324C17.251,8.648,18.97,8.028,19,12c0.008,0.972-0.009,1.311,0,3
		h4.998c0-0.164,0.002-3.076,0.002-3.221C24,10.833,23.926,10.044,22.808,9.786L22.808,9.786L22.808,9.786z M17.997,15H6.002
		C6.002,14.779,6,12.068,6,11.874c0-1.258,0.1-2.482,1.588-2.826c1.684-0.389,3.344-0.736,2.545-2.209C7.767,2.475,9.459,0,11.999,0
		c2.491,0,4.226,2.383,1.866,6.839c-0.775,1.464,0.826,1.812,2.545,2.209c1.49,0.344,1.589,1.569,1.589,2.829
		C17.999,12.071,17.997,14.781,17.997,15L17.997,15L17.997,15z"/>
</g>
</svg>
