<?xml version="1.0" encoding="utf-8"?>
<!-- Generator: Adobe Illustrator 23.0.2, SVG Export Plug-In . SVG Version: 6.00 Build 0)  -->
<svg version="1.1" id="Layer_1" xmlns="http://www.w3.org/2000/svg" xmlns:xlink="http://www.w3.org/1999/xlink" x="0px" y="0px"
	 viewBox="0 0 24 24" style="enable-background:new 0 0 24 24;" xml:space="preserve">
<style type="text/css">
	.st0{fill-rule:evenodd;clip-rule:evenodd;fill:#FFFFFF;}
</style>
<g>
	<path class="st0" d="M5,18H4c-0.6,0-1-0.4-1-1c0-0.9,0-2,0-2h12V6c0,0,3.2,0,4.7,0c1.1,0,1.6,0.6,1.9,1.1c0.6,0.9,1.5,2.4,2.1,3.4
		c0.2,0.3,0.3,0.7,0.3,1c0,1.2,0,3,0,4.5c0,1.1-0.7,2-2,2h-1c0,1.7-1.3,3-3,3s-3-1.3-3-3h-4c0,1.7-1.3,3-3,3S5,19.7,5,18L5,18z
		 M8,16.8c0.7,0,1.2,0.5,1.2,1.2S8.7,19.2,8,19.2S6.8,18.7,6.8,18S7.3,16.8,8,16.8L8,16.8z M18,16.8c0.7,0,1.2,0.5,1.2,1.2
		s-0.5,1.2-1.2,1.2s-1.2-0.5-1.2-1.2S17.3,16.8,18,16.8L18,16.8z M8,8H0V6h8V5H3V4c0-0.6,0.4-1,1-1c2.6,0,6.4,0,9,0c0.6,0,1,0.4,1,1
		v10H3v-3H1V9h7V8L8,8z M17,8v3h4.7c0,0-0.9-1.6-1.4-2.5C20.1,8.2,19.8,8,19.4,8C18.5,8,17,8,17,8L17,8z"/>
</g>
</svg>
